<svg width="27" height="40" viewBox="0 0 27 40" fill="none" xmlns="http://www.w3.org/2000/svg">
<g clip-path="url(#clip0)">
<path d="M13.3333 20C13.3333 16.3181 16.3181 13.3333 20 13.3333C23.6818 13.3333 26.6667 16.3181 26.6667 20C26.6667 23.682 23.6818 26.6667 20 26.6667C16.3181 26.6667 13.3333 23.6818 13.3333 20Z" fill="#1ABCFE"/>
<path d="M0 33.3333C0 29.6513 2.98478 26.6667 6.66667 26.6667H13.3333V33.3333C13.3333 37.0153 10.3486 40 6.66667 40C2.98478 40 0 37.0153 0 33.3333Z" fill="#0ACF83"/>
<path d="M13.3333 0V13.3333H20C23.682 13.3333 26.6667 10.3486 26.6667 6.66667C26.6667 2.98478 23.682 0 20 0H13.3333Z" fill="#FF7262"/>
<path d="M0 6.66667C0 10.3486 2.98478 13.3333 6.66667 13.3333H13.3333V0H6.66667C2.98478 0 0 2.98478 0 6.66667Z" fill="#F24E1E"/>
<path d="M0 20C0 23.682 2.98478 26.6667 6.66667 26.6667H13.3333V13.3333H6.66667C2.98478 13.3333 0 16.3181 0 20Z" fill="#A259FF"/>
</g>
<defs>
<clipPath id="clip0">
<rect width="26.6667" height="40" fill="white"/>
</clipPath>
</defs>
</svg>
